<svg width="127" height="32" viewBox="0 0 127 32" fill="none" xmlns="http://www.w3.org/2000/svg">
<path d="M60.1995 19.9342H53.1583L51.5273 24.7916H48L53.9539 8.31225L51.7893 6H58.6481L65.4374 24.7916H61.8306L60.1995 19.9342ZM53.9539 17.3427H59.3907L56.7253 9.32077H56.6325L53.9539 17.3427Z" fill="#222222"/>
<path d="M66.9427 10.5579H70.1119V13.0322H70.1782C70.4081 12.1988 70.8324 11.552 71.4512 11.0918C72.0612 10.6317 72.795 10.4016 73.6525 10.4016C74.0591 10.4016 74.395 10.4451 74.6602 10.5319V13.488C74.3685 13.3578 73.9309 13.2927 73.3475 13.2927C72.3839 13.2927 71.6236 13.5835 71.0667 14.1652C70.5186 14.7382 70.2445 15.5282 70.2445 16.5353V24.7916H66.9427V10.5579Z" fill="#222222"/>
<path d="M81.894 12.889C80.9305 12.889 80.126 13.2015 79.4807 13.8266C78.8353 14.4604 78.4773 15.2851 78.4066 16.3009H85.2754C85.2401 15.2764 84.913 14.4517 84.2942 13.8266C83.6754 13.2015 82.8753 12.889 81.894 12.889ZM88.3916 20.5593C88.1795 21.8789 87.4855 22.9468 86.3097 23.7629C85.134 24.5876 83.7019 25 82.0134 25C79.874 25 78.1811 24.3489 76.9347 23.0466C75.697 21.7443 75.0782 19.9733 75.0782 17.7334C75.0782 15.4935 75.697 13.705 76.9347 12.3681C78.1635 11.0311 79.8166 10.3626 81.894 10.3626C83.9273 10.3626 85.5406 10.9963 86.7341 12.2639C87.9275 13.5314 88.5242 15.2417 88.5242 17.3948V18.4626H78.38V18.658C78.38 19.804 78.7204 20.7242 79.4011 21.4188C80.0818 22.122 80.9747 22.4736 82.0797 22.4736C82.8753 22.4736 83.5604 22.3 84.135 21.9527C84.7097 21.6141 85.0942 21.1496 85.2887 20.5593H88.3916Z" fill="#222222"/>
<path d="M90.4804 10.5579H93.6496V13.0322H93.7159C94.5911 11.2698 96.1514 10.3886 98.3968 10.3886C100.006 10.3886 101.27 10.8574 102.189 11.7951C103.109 12.7327 103.568 14.0263 103.568 15.6758V24.7916H100.267V16.3139C100.267 15.2981 99.9969 14.5125 99.4577 13.9568C98.9184 13.4099 98.1537 13.1364 97.1636 13.1364C96.147 13.1364 95.3293 13.4576 94.7105 14.1001C94.0916 14.7425 93.7822 15.5846 93.7822 16.6265V24.7916H90.4804V10.5579Z" fill="#222222"/>
<path d="M110.272 7.3804V10.5579H113.017V13.0713H110.272V20.5723C110.272 21.727 110.855 22.3043 112.022 22.3043C112.323 22.3043 112.65 22.2826 113.003 22.2392V24.7265C112.606 24.8133 112.027 24.8568 111.266 24.8568C109.728 24.8568 108.627 24.5616 107.964 23.9712C107.301 23.3722 106.97 22.3868 106.97 21.0151V13.0713H104.994V10.5579H106.97V7.3804H110.272Z" fill="#222222"/>
<path d="M120.211 22.4606C121.218 22.4606 122.058 22.1828 122.73 21.6271C123.402 21.0715 123.738 20.3639 123.738 19.5045V18.4236L120.423 18.6319C118.584 18.7535 117.665 19.4046 117.665 20.5853C117.665 21.1583 117.899 21.6141 118.367 21.9527C118.827 22.2913 119.442 22.4606 120.211 22.4606ZM119.243 24.9479C117.811 24.9479 116.639 24.5572 115.729 23.7759C114.809 22.9945 114.35 21.9744 114.35 20.7156C114.35 19.448 114.831 18.4583 115.795 17.7464C116.75 17.0345 118.142 16.6221 119.972 16.5093L123.738 16.2879V15.2461C123.738 14.4994 123.49 13.9221 122.995 13.5141C122.509 13.1147 121.82 12.915 120.927 12.915C120.184 12.915 119.561 13.0886 119.057 13.4359C118.553 13.7832 118.244 14.2477 118.129 14.8293H115.079C115.123 13.5271 115.698 12.4549 116.803 11.6127C117.917 10.7793 119.327 10.3626 121.033 10.3626C122.845 10.3626 124.29 10.788 125.369 11.6388C126.456 12.4896 127 13.6226 127 15.0377V24.7916H123.831V22.4997H123.751C123.353 23.255 122.743 23.854 121.921 24.2968C121.108 24.7309 120.215 24.9479 119.243 24.9479Z" fill="#222222"/>
<mask id="mask0" mask-type="alpha" maskUnits="userSpaceOnUse" x="0" y="0" width="32" height="32">
<path d="M0 6.85714C0 3.07005 3.07005 0 6.85714 0H25.1429C28.93 0 32 3.07005 32 6.85714V25.1429C32 28.93 28.93 32 25.1429 32H6.85714C3.07005 32 0 28.93 0 25.1429V6.85714Z" fill="#C4C4C4"/>
</mask>
<g mask="url(#mask0)">
<path d="M0 6.85714C0 3.07005 3.07005 0 6.85714 0H25.1429C28.93 0 32 3.07005 32 6.85714V25.1429C32 28.93 28.93 32 25.1429 32H6.85714C3.07005 32 0 28.93 0 25.1429V6.85714Z" fill="#F6F7FA"/>
<rect width="23.0763" height="60.9524" transform="matrix(0.866025 -0.5 -0.5 -0.866025 36.7572 51.3724)" fill="#4339B5"/>
<rect x="5.63806" y="-12.9551" width="23.0763" height="60.9524" transform="rotate(30 5.63806 -12.9551)" fill="#FE4E03"/>
</g>
</svg>
