<svg width="49" height="49" viewBox="0 0 49 49" fill="none" xmlns="http://www.w3.org/2000/svg">
<mask id="mask0" mask-type="alpha" maskUnits="userSpaceOnUse" x="0" y="0" width="49" height="49">
<path d="M0 10.5C0 4.70101 4.70101 0 10.5 0H38.5C44.299 0 49 4.70101 49 10.5V38.5C49 44.299 44.299 49 38.5 49H10.5C4.70101 49 0 44.299 0 38.5V10.5Z" fill="#C4C4C4"/>
</mask>
<g mask="url(#mask0)">
<path d="M0 10.5C0 4.70101 4.70101 0 10.5 0H38.5C44.299 0 49 4.70101 49 10.5V38.5C49 44.299 44.299 49 38.5 49H10.5C4.70101 49 0 44.299 0 38.5V10.5Z" fill="#F6F7FA"/>
<rect width="35.3356" height="93.3333" transform="matrix(0.866025 -0.5 -0.5 -0.866025 56.2852 78.6638)" fill="#4339B5"/>
<rect x="8.62988" y="-19.8373" width="35.3356" height="93.3333" transform="rotate(30 8.62988 -19.8373)" fill="#FE4E03"/>
</g>
</svg>
