<svg width="32" height="32" viewBox="0 0 32 32" fill="none" xmlns="http://www.w3.org/2000/svg">
<circle cx="16" cy="16" r="16" fill="#969A9F" fill-opacity="0.03"/>
<circle cx="16" cy="16" r="15.5" stroke="#969A9F" stroke-opacity="0.24"/>
<path d="M17.3162 22.2562C17.9254 22.2562 18.3951 22.7977 18.246 23.3884C18.0994 23.9689 17.8923 24.563 17.6346 24.7861C17.1809 25.179 16.6009 25.3952 16.0008 25.3952C15.4006 25.3952 14.8206 25.179 14.3669 24.7861C14.1092 24.563 13.9021 23.9689 13.7555 23.3884C13.6064 22.7977 14.0761 22.2562 14.6853 22.2562H17.3162ZM16.0008 8C19.0089 8.00006 21.3441 11.2439 21.3441 14.059H21.347V16.9897L23.0675 19.587C23.0946 19.6575 23.1132 19.7302 23.1224 19.805L23.1296 19.9169C23.1297 20.1429 23.0459 20.3609 22.8945 20.5287C22.743 20.6964 22.5347 20.802 22.3099 20.825L22.2173 20.8293H9.78214C9.6416 20.8294 9.50294 20.797 9.37697 20.7347C9.251 20.6724 9.14113 20.5818 9.05592 20.47C8.97072 20.3583 8.91249 20.2283 8.88577 20.0904C8.85906 19.9524 8.86458 19.8101 8.90191 19.6746L8.93185 19.5862L10.6538 16.989V14.0597C10.6535 11.208 12.9639 8 16.0008 8Z" fill="#969A9F"/>
</svg>
