<svg width="32" height="32" viewBox="0 0 32 32" fill="none" xmlns="http://www.w3.org/2000/svg">
<circle cx="16" cy="16" r="16" fill="#574DC6" fill-opacity="0.02"/>
<circle cx="16" cy="16" r="15.5" stroke="#574DC6" stroke-opacity="0.2"/>
<mask id="mask0" mask-type="alpha" maskUnits="userSpaceOnUse" x="1" y="1" width="30" height="30">
<circle cx="16" cy="16" r="15" fill="white"/>
</mask>
<g mask="url(#mask0)">
<path d="M21.0936 19.9711C18.7335 19.105 17.979 19.3738 17.979 17.8084C17.979 16.8689 18.7523 16.2601 19.0159 15.4549C19.2796 14.6498 19.432 13.6965 19.5588 13.0031C19.6856 12.3096 19.7359 12.0414 19.8049 11.3026C19.8891 10.3805 19.2764 8 16 8C12.7246 8 12.1099 10.3805 12.1961 11.3026C12.265 12.0414 12.3156 12.3097 12.4421 13.0031C12.5686 13.6965 12.7196 14.6497 12.9831 15.4549C13.2465 16.2601 14.0209 16.8689 14.0209 17.8084C14.0209 19.3738 13.2664 19.105 10.9063 19.9711C8.53766 20.8392 8 22.6952 8 23.3C8 23.6866 8.3134 24 8.7 24H23.3C23.6866 24 24 23.6866 24 23.3C24 22.6962 23.4614 20.8402 21.0936 19.9711Z" fill="#574DC6"/>
</g>
</svg>
